<svg width="30" height="30" viewBox="0 0 30 30" fill="none" xmlns="http://www.w3.org/2000/svg">
<path d="M11.5483 22.587L11.5494 22.588C12.3055 23.2463 13.1616 23.9919 14.0496 24.7853C14.3121 25.0203 14.6496 25.15 15 25.15C15.3502 25.15 15.6879 25.0203 15.9503 24.7856C16.8402 23.9904 17.6977 23.2436 18.4551 22.5842L18.4551 22.5842L18.4642 22.5763C20.6732 20.6527 22.5948 18.9792 23.9347 17.3272C25.4396 15.4718 26.15 13.6992 26.15 11.7559C26.15 9.87564 25.5191 8.13455 24.3663 6.85678L24.2555 6.95672L24.3663 6.85677C23.199 5.56314 21.5957 4.85 19.8543 4.85C18.5496 4.85 17.354 5.27226 16.3047 6.10157C15.8264 6.47949 15.3899 6.93304 15 7.45527C14.6102 6.93302 14.1736 6.47948 13.6955 6.10158L13.6955 6.10157C12.6461 5.27226 11.4505 4.85 10.1459 4.85C8.40427 4.85 6.80116 5.56314 5.6339 6.85677L5.6339 6.85678C4.48107 8.13455 3.85 9.87563 3.85 11.7559C3.85 13.6992 4.56061 15.4718 6.06551 17.3274L6.18201 17.2329L6.06551 17.3274C7.40569 18.9797 9.32823 20.6538 11.5382 22.5782L11.5445 22.5836L11.5456 22.5846L11.5483 22.587Z" fill="#F04438" stroke="#F04438" stroke-width="0.3"/>
</svg>
