<svg width="30" height="30" viewBox="0 0 30 30" fill="none" xmlns="http://www.w3.org/2000/svg">
<path d="M13.4082 6.65569C10.7539 7.0717 8.0293 8.48967 5.35742 10.8451C4.16797 11.894 2.57422 13.6225 2.28125 14.1791C2.16406 14.4018 2.14062 14.5248 2.14062 14.9994C2.14062 15.474 2.16406 15.5971 2.28125 15.8197C2.70312 16.6225 4.92383 18.8783 6.53516 20.1381C8.32227 21.5385 10.4902 22.6576 12.2949 23.1088C13.3906 23.3842 14.041 23.4545 15.2891 23.4194C16.4961 23.3901 17.0586 23.308 18.1309 22.9975C21.1191 22.1303 24.5059 19.728 27.1777 16.5639C27.7227 15.9194 27.8457 15.6615 27.8809 15.1166C27.9277 14.2963 27.6406 13.8393 26.0176 12.1635C24.2188 10.3061 22.4023 8.92912 20.4512 7.94475C19.0977 7.2592 17.8555 6.84904 16.5488 6.64983C15.8281 6.5385 14.1172 6.54436 13.4082 6.65569ZM16.3496 8.58928C18.4766 8.92912 20.6855 10.0658 23 12.0053C23.5859 12.4975 25.1797 14.0678 25.6543 14.6303L25.9648 14.9936L25.543 15.4799C24.0195 17.2319 21.9453 18.978 20.2051 19.974C18.3828 21.017 16.7188 21.5092 14.9961 21.5092C13.0332 21.5092 11.0586 20.8354 8.9082 19.4291C7.44922 18.4682 5.65039 16.8686 4.34961 15.3627L4.03906 15.0053L4.46094 14.519C5.97852 12.767 8.08203 11.0092 9.86328 9.98967C12.0957 8.71233 14.2461 8.24944 16.3496 8.58928Z" fill="#FFC24B"/>
<path d="M13.8984 10.8984C12.4629 11.2793 11.2676 12.4805 10.8984 13.9219C10.8164 14.2324 10.7812 14.5723 10.7812 15C10.7812 16.2188 11.1621 17.1387 12.0117 17.9883C12.8613 18.8379 13.7812 19.2188 15 19.2188C16.2188 19.2188 17.1387 18.8379 17.9883 17.9883C18.8379 17.1387 19.2188 16.2188 19.2188 15C19.2188 14.5723 19.1836 14.2324 19.1016 13.9219C18.7324 12.4688 17.5312 11.2676 16.0781 10.8984C15.4746 10.7402 14.4961 10.7461 13.8984 10.8984ZM15.9551 12.9082C16.3887 13.1074 16.8926 13.6055 17.0977 14.0449C17.2383 14.3496 17.2559 14.4551 17.2559 15C17.2559 15.5449 17.2383 15.6504 17.0977 15.9551C16.8926 16.3887 16.3887 16.8926 15.9551 17.0977C15.6504 17.2383 15.5449 17.2559 15 17.2559C14.4551 17.2559 14.3496 17.2383 14.0449 17.0977C13.6113 16.8926 13.1074 16.3887 12.9023 15.9551C12.7617 15.6504 12.7441 15.5449 12.7441 15C12.7441 14.4551 12.7617 14.3496 12.8965 14.0625C13.1777 13.4707 13.6582 13.0313 14.2559 12.8203C14.7129 12.6563 15.5039 12.6973 15.9551 12.9082Z" fill="#FFC24B"/>
</svg>
