<svg width="150" height="150" viewBox="0 0 150 150" fill="none" xmlns="http://www.w3.org/2000/svg">
<path d="M148.628 43.4492L139.567 38.1379C138.535 37.602 137.388 37.3362 136.229 37.3647C135.071 37.3933 133.938 37.7152 132.933 38.3012L86.1452 68.9324C77.0144 63.489 64.3983 60.1762 50.4646 60.1762C22.5972 60.1762 0 73.5672 0 90.0842C0 106.601 22.5972 120 50.4646 120C78.3319 120 100.937 106.609 100.937 90.0842C100.937 84.804 98.6388 79.8505 94.5637 75.5424L148.544 47.2285C150.452 46.2332 150.49 44.5379 148.628 43.4492Z" fill="#EBEBEB"/>
<path d="M94.2258 69.8035C93.7994 70.0023 93.3286 70.0825 92.8616 70.0361C92.3946 69.9896 91.9481 69.8181 91.5678 69.5391C90.4717 68.8197 89.5589 67.8472 88.9039 66.7011C88.2488 65.555 87.8702 64.2678 87.799 62.9448C87.7504 62.4671 87.8302 61.9849 88.0298 61.5495C88.2294 61.1141 88.5414 60.7417 88.9327 60.4719L135.659 30.4472C136.617 29.794 137.957 29.8329 139.489 30.7194C141.022 31.7269 142.298 33.0872 143.215 34.6897C144.132 36.2923 144.664 38.0918 144.767 39.9422C144.767 41.7308 144.124 42.9517 143.089 43.4727L94.2258 69.8035Z" fill="#455A64"/>
<path d="M87.7969 62.9447C87.7969 60.5107 89.4668 59.5153 91.5503 60.7284C92.6449 61.4514 93.5564 62.4258 94.2111 63.5727C94.8658 64.7197 95.2454 66.007 95.3191 67.3306C95.3191 69.7646 93.6415 70.7522 91.5656 69.5391C90.4696 68.8196 89.5567 67.8471 88.9017 66.701C88.2467 65.5549 87.8681 64.2677 87.7969 62.9447Z" fill="#37474F"/>
<path d="M82.2685 73.2872C81.6024 72.8538 81.0468 72.2663 80.6474 71.5729C80.248 70.8795 80.016 70.0999 79.9705 69.298C79.9328 69.0115 79.9745 68.7201 80.0909 68.4564C80.2073 68.1927 80.3937 67.9671 80.6293 67.8049L89.921 62.3148C90.1786 62.1935 90.4633 62.1441 90.746 62.1714C91.0287 62.1987 91.2991 62.3019 91.5296 62.4703C92.1945 62.9051 92.749 63.493 93.1483 64.1861C93.5475 64.8792 93.7803 65.6581 93.8276 66.4596C93.8582 66.7473 93.8126 67.0382 93.6954 67.302C93.5782 67.5659 93.3938 67.7931 93.1612 67.9604L83.8695 73.4428C83.6132 73.5641 83.3296 73.6137 83.0481 73.5864C82.7666 73.559 82.4975 73.4557 82.2685 73.2872Z" fill="#FFC24B"/>
<path opacity="0.2" d="M82.2685 73.2872C81.6024 72.8538 81.0468 72.2663 80.6474 71.5729C80.248 70.8795 80.016 70.0999 79.9705 69.298C79.9328 69.0115 79.9745 68.7201 80.0909 68.4564C80.2073 68.1927 80.3937 67.9671 80.6293 67.8049L89.921 62.3148C90.1786 62.1935 90.4633 62.1441 90.746 62.1714C91.0287 62.1987 91.2991 62.3019 91.5296 62.4703C92.1945 62.9051 92.749 63.493 93.1483 64.1861C93.5475 64.8792 93.7803 65.6581 93.8276 66.4596C93.8582 66.7473 93.8126 67.0382 93.6954 67.302C93.5782 67.5659 93.3938 67.7931 93.1612 67.9604L83.8695 73.4428C83.6132 73.5641 83.3296 73.6137 83.0481 73.5864C82.7666 73.559 82.4975 73.4557 82.2685 73.2872Z" fill="#393333"/>
<path opacity="0.2" d="M86.6355 65.6897C86.2984 65.4254 85.9461 65.1661 85.5784 64.9121L80.6836 67.7971C82.6681 69.0104 84.4974 70.4678 86.1299 72.1364L90.6187 69.4924L90.251 69.0569C89.1407 67.8338 87.9313 66.7075 86.6355 65.6897Z" fill="#393333"/>
<path opacity="0.15" d="M93.3155 62.2839L141.428 32.2748C140.861 31.6695 140.214 31.1462 139.506 30.7196C137.974 29.8331 136.618 29.7942 135.676 30.4552L88.9492 60.472C89.3753 60.2717 89.8464 60.1905 90.3137 60.237C90.781 60.2835 91.2276 60.4559 91.6073 60.7364C92.2564 61.1536 92.8336 61.6764 93.3155 62.2839Z" fill="#393333"/>
<path d="M92.7632 81.7866C92.7632 81.5922 92.7632 81.4366 92.7632 81.3278C92.7632 81.2189 92.7632 80.9623 92.7632 80.7756C92.7632 80.3246 92.6943 79.8814 92.633 79.4381C92.633 79.2748 92.5794 79.1193 92.5487 78.9482C92.4378 78.3304 92.2894 77.72 92.1045 77.1207L91.9436 76.6231C91.7827 76.1798 91.6142 75.7288 91.4227 75.2933C91.3538 75.1378 91.2848 74.99 91.2082 74.8345L91.0014 74.4146C90.9018 74.2202 90.8022 74.0257 90.6873 73.8313C90.5724 73.6369 90.4729 73.4425 90.3503 73.2481L89.9903 72.6804C89.3481 71.6813 88.6201 70.7419 87.8148 69.8732C86.7656 68.7123 85.6172 67.6479 84.3831 66.6926C83.0118 65.6194 81.5682 64.645 80.0628 63.7765C63.2107 53.9938 35.9561 53.9938 19.2724 63.7765C18.8511 64.0253 18.4452 64.2742 18.0468 64.5541C16.5555 65.4922 15.1391 66.5479 13.8108 67.7113C13.4355 68.0535 13.0448 68.3956 12.7154 68.7456C11.8402 69.6099 11.031 70.5406 10.2948 71.5295C10.1646 71.7006 10.0421 71.8795 9.9195 72.0583C9.79694 72.2372 9.59778 72.5327 9.45223 72.7737C9.30669 73.0148 9.04625 73.4347 8.8624 73.7691C8.67856 74.1035 8.47174 74.5468 8.29556 74.8889C8.21895 75.0522 8.14235 75.2077 8.08107 75.371C8.01979 75.5344 7.88957 75.8221 7.80531 76.0554C7.72105 76.2887 7.6751 76.3975 7.62148 76.5686C7.22182 77.7484 6.96461 78.9731 6.85547 80.2157C6.85547 80.3479 6.85547 80.4802 6.85547 80.6124C6.85547 80.9001 6.85547 81.1878 6.85547 81.46C6.85547 82.5253 6.85547 87.3234 6.85547 88.2099C6.85547 94.6798 11.0532 101.173 19.5099 106.096C36.2931 115.933 63.5171 115.933 80.3003 106.096C88.78 101.134 92.9547 94.6176 92.8398 88.1243C92.7632 87.3856 92.8092 83.3574 92.7632 81.7866ZM21.6547 68.0302C29.0084 63.722 38.9205 61.3502 49.5604 61.3502C60.2002 61.3502 70.1966 63.722 77.6422 68.0379C84.2682 71.8717 87.9144 76.6775 87.9297 81.5688C87.945 86.4602 84.3448 91.2193 77.8031 95.0531C70.4111 99.3923 60.476 101.772 49.8208 101.772C39.1657 101.772 29.2459 99.3923 21.8462 95.0531C15.2509 91.1649 11.6124 86.3513 11.6124 81.4366C11.6124 76.522 15.2203 71.825 21.6854 68.0302H21.6547Z" fill="#FFC24B"/>
<path opacity="0.25" d="M92.7632 81.7866C92.7632 81.5922 92.7632 81.4366 92.7632 81.3278C92.7632 81.2189 92.7632 80.9623 92.7632 80.7756C92.7632 80.3246 92.6943 79.8814 92.633 79.4381C92.633 79.2748 92.5794 79.1193 92.5487 78.9482C92.4378 78.3304 92.2894 77.72 92.1045 77.1207L91.9436 76.6231C91.7827 76.1798 91.6142 75.7288 91.4227 75.2933C91.3538 75.1378 91.2848 74.99 91.2082 74.8345L91.0014 74.4146C90.9018 74.2202 90.8022 74.0257 90.6873 73.8313C90.5724 73.6369 90.4729 73.4425 90.3503 73.2481L89.9903 72.6804C89.3481 71.6813 88.6201 70.7419 87.8148 69.8732C86.7656 68.7123 85.6172 67.6479 84.3831 66.6926C83.0118 65.6194 81.5682 64.645 80.0628 63.7765C63.2107 53.9938 35.9561 53.9938 19.2724 63.7765C18.8511 64.0253 18.4452 64.2742 18.0468 64.5541C16.5555 65.4922 15.1391 66.5479 13.8108 67.7113C13.4355 68.0535 13.0448 68.3956 12.7154 68.7456C11.8402 69.6099 11.031 70.5406 10.2948 71.5295C10.1646 71.7006 10.0421 71.8795 9.9195 72.0583C9.79694 72.2372 9.59778 72.5327 9.45223 72.7737C9.30669 73.0148 9.04625 73.4347 8.8624 73.7691C8.67856 74.1035 8.47174 74.5468 8.29556 74.8889C8.21895 75.0522 8.14235 75.2077 8.08107 75.371C8.01979 75.5344 7.88957 75.8221 7.80531 76.0554C7.72105 76.2887 7.6751 76.3975 7.62148 76.5686C7.22182 77.7484 6.96461 78.9731 6.85547 80.2157C6.85547 80.3479 6.85547 80.4802 6.85547 80.6124C6.85547 80.9001 6.85547 81.1878 6.85547 81.46C6.85547 82.5253 6.85547 87.3234 6.85547 88.2099C6.85547 94.6798 11.0532 101.173 19.5099 106.096C36.2931 115.933 63.5171 115.933 80.3003 106.096C88.78 101.134 92.9547 94.6176 92.8398 88.1243C92.7632 87.3856 92.8092 83.3574 92.7632 81.7866ZM21.6547 68.0302C29.0084 63.722 38.9205 61.3502 49.5604 61.3502C60.2002 61.3502 70.1966 63.722 77.6422 68.0379C84.2682 71.8717 87.9144 76.6775 87.9297 81.5688C87.945 86.4602 84.3448 91.2193 77.8031 95.0531C70.4111 99.3923 60.476 101.772 49.8208 101.772C39.1657 101.772 29.2459 99.3923 21.8462 95.0531C15.2509 91.1649 11.6124 86.3513 11.6124 81.4366C11.6124 76.522 15.2203 71.825 21.6854 68.0302H21.6547Z" fill="white"/>
<path d="M92.7621 81.7871H87.9286C87.9286 86.6474 84.3437 91.2199 77.8019 95.0536C70.6321 99.2607 61.0647 101.625 50.7695 101.765V113.468C61.4553 113.336 72.0722 110.886 80.2225 106.104C88.7022 101.143 92.877 94.6259 92.7621 88.1326C92.7621 87.3861 92.808 83.3579 92.7621 81.7871Z" fill="#FFC24B"/>
<path d="M92.7632 81.3124C92.7632 81.1336 92.7632 80.9469 92.7632 80.7603C92.7632 80.3093 92.6943 79.866 92.633 79.4228C92.633 79.2594 92.5794 79.1039 92.5487 78.9328C92.4378 78.315 92.2894 77.7047 92.1045 77.1054L91.9436 76.6077C91.7827 76.1644 91.6142 75.7134 91.4227 75.2779C91.3538 75.1224 91.2848 74.9746 91.2082 74.8191L91.0014 74.3992C90.9018 74.2048 90.8023 74.0104 90.6873 73.816C90.5724 73.6215 90.4729 73.4271 90.3503 73.2327L89.9903 72.6651C89.3481 71.666 88.6201 70.7266 87.8148 69.8578C86.7618 68.7008 85.6137 67.6368 84.3831 66.6772C83.0118 65.604 81.5682 64.6296 80.0628 63.7611C63.2107 53.9784 35.9561 53.9784 19.2724 63.7611C18.8511 64.0099 18.4452 64.2588 18.0468 64.5387C16.5555 65.4768 15.1391 66.5325 13.8108 67.6959C13.4355 68.0381 13.0448 68.3803 12.7154 68.7302C11.8402 69.5945 11.031 70.5252 10.2948 71.5142C10.1646 71.6852 10.0421 71.8641 9.9195 72.0429C9.79694 72.2218 9.59778 72.5173 9.45223 72.7584C9.30669 72.9994 9.04625 73.4194 8.86241 73.7538C8.67856 74.0881 8.47174 74.5314 8.29556 74.8736C8.21895 75.0369 8.14235 75.1924 8.08107 75.3557C8.01979 75.519 7.88957 75.8067 7.80531 76.04C7.72105 76.2733 7.6751 76.3822 7.62148 76.5533C7.22182 77.7331 6.96461 78.9577 6.85547 80.2004C6.85547 80.3326 6.85547 80.4648 6.85547 80.597C6.85547 80.8847 6.85547 81.1724 6.85547 81.4446C6.85547 87.9068 11.0762 94.3768 19.5099 99.3303C36.2931 109.167 63.5171 109.167 80.3003 99.3303C88.5808 94.4778 92.7632 88.1556 92.8398 81.8101C92.8015 81.5924 92.7632 81.4368 92.7632 81.3124ZM77.8031 95.0377C70.4111 99.377 60.476 101.757 49.8208 101.757C39.1657 101.757 29.2459 99.377 21.8462 95.0377C15.2509 91.1495 11.6124 86.336 11.6124 81.4213C11.6124 76.5066 15.1896 71.8097 21.6547 68.0148C29.0084 63.7067 38.9205 61.3349 49.5604 61.3349C60.2002 61.3349 70.1966 63.7067 77.6422 68.0226C84.2682 71.8563 87.9144 76.6621 87.9297 81.5535C87.945 86.4448 84.3755 91.2195 77.8337 95.0533L77.8031 95.0377Z" fill="#FFC24B"/>
<path opacity="0.45" d="M92.7632 81.3124C92.7632 81.1336 92.7632 80.9469 92.7632 80.7603C92.7632 80.3093 92.6943 79.866 92.633 79.4228C92.633 79.2594 92.5794 79.1039 92.5487 78.9328C92.4378 78.315 92.2894 77.7047 92.1045 77.1054L91.9436 76.6077C91.7827 76.1644 91.6142 75.7134 91.4227 75.2779C91.3538 75.1224 91.2848 74.9746 91.2082 74.8191L91.0014 74.3992C90.9018 74.2048 90.8023 74.0104 90.6873 73.816C90.5724 73.6215 90.4729 73.4271 90.3503 73.2327L89.9903 72.6651C89.3481 71.666 88.6201 70.7266 87.8148 69.8578C86.7618 68.7008 85.6137 67.6368 84.3831 66.6772C83.0118 65.604 81.5682 64.6296 80.0628 63.7611C63.2107 53.9784 35.9561 53.9784 19.2724 63.7611C18.8511 64.0099 18.4452 64.2588 18.0468 64.5387C16.5555 65.4768 15.1391 66.5325 13.8108 67.6959C13.4355 68.0381 13.0448 68.3803 12.7154 68.7302C11.8402 69.5945 11.031 70.5252 10.2948 71.5142C10.1646 71.6852 10.0421 71.8641 9.9195 72.0429C9.79694 72.2218 9.59778 72.5173 9.45223 72.7584C9.30669 72.9994 9.04625 73.4194 8.86241 73.7538C8.67856 74.0881 8.47174 74.5314 8.29556 74.8736C8.21895 75.0369 8.14235 75.1924 8.08107 75.3557C8.01979 75.519 7.88957 75.8067 7.80531 76.04C7.72105 76.2733 7.6751 76.3822 7.62148 76.5533C7.22182 77.7331 6.96461 78.9577 6.85547 80.2004C6.85547 80.3326 6.85547 80.4648 6.85547 80.597C6.85547 80.8847 6.85547 81.1724 6.85547 81.4446C6.85547 87.9068 11.0762 94.3768 19.5099 99.3303C36.2931 109.167 63.5171 109.167 80.3003 99.3303C88.5808 94.4778 92.7632 88.1556 92.8398 81.8101C92.8015 81.5924 92.7632 81.4368 92.7632 81.3124ZM77.8031 95.0377C70.4111 99.377 60.476 101.757 49.8208 101.757C39.1657 101.757 29.2459 99.377 21.8462 95.0377C15.2509 91.1495 11.6124 86.336 11.6124 81.4213C11.6124 76.5066 15.1896 71.8097 21.6547 68.0148C29.0084 63.7067 38.9205 61.3349 49.5604 61.3349C60.2002 61.3349 70.1966 63.7067 77.6422 68.0226C84.2682 71.8563 87.9144 76.6621 87.9297 81.5535C87.945 86.4448 84.3755 91.2195 77.8337 95.0533L77.8031 95.0377Z" fill="white"/>
<path d="M87.9584 81.5692C87.959 82.4033 87.856 83.2341 87.652 84.0421C86.6485 80.0062 83.1938 76.1413 77.6939 72.953C70.2483 68.6371 60.2749 66.2653 49.6121 66.2653C38.9493 66.2653 29.0601 68.6371 21.7064 72.9452C16.3444 76.0557 12.9586 79.9051 11.9705 83.8866C11.766 83.0866 11.6631 82.2634 11.6641 81.437C11.6641 76.5845 15.2413 71.8254 21.7064 68.0305C29.0601 63.7224 38.9722 61.3506 49.6121 61.3506C60.2519 61.3506 70.2483 63.7224 77.6939 68.0383C84.3352 71.872 87.9431 76.6467 87.9584 81.5692Z" fill="#FFC24B"/>
<path opacity="0.25" d="M87.9584 81.5692C87.959 82.4033 87.856 83.2341 87.652 84.0421C86.6485 80.0062 83.1938 76.1413 77.6939 72.953C70.2483 68.6371 60.2749 66.2653 49.6121 66.2653C38.9493 66.2653 29.0601 68.6371 21.7064 72.9452C16.3444 76.0557 12.9586 79.9051 11.9705 83.8866C11.766 83.0866 11.6631 82.2634 11.6641 81.437C11.6641 76.5845 15.2413 71.8254 21.7064 68.0305C29.0601 63.7224 38.9722 61.3506 49.6121 61.3506C60.2519 61.3506 70.2483 63.7224 77.6939 68.0383C84.3352 71.872 87.9431 76.6467 87.9584 81.5692Z" fill="white"/>
<path opacity="0.55" d="M87.8829 82.8677C87.3161 87.2769 83.8001 91.5695 77.8329 95.0689C70.4409 99.4081 60.5058 101.788 49.8506 101.788C39.1954 101.788 29.2757 99.4081 21.876 95.0689C15.8322 91.5228 12.2779 87.1758 11.7188 82.6966C12.2779 78.2719 15.7633 73.9949 21.6769 70.5266C29.0305 66.2185 38.9427 63.8467 49.5825 63.8467C60.2224 63.8467 70.2188 66.2185 77.6644 70.5344C83.7541 74.0338 87.3314 78.373 87.8829 82.8677Z" fill="white"/>
</svg>
